<?xml version="1.0" encoding="UTF-8"?>
<svg width="108px" height="24px" viewBox="0 0 108 24" version="1.1" xmlns="http://www.w3.org/2000/svg" xmlns:xlink="http://www.w3.org/1999/xlink">
    <title>gearjunkie-vector-logo</title>
    <g id="Page-1" stroke="none" stroke-width="1" fill="none" fill-rule="evenodd" opacity="0.803501674">
        <g id="gearjunkie-vector-logo" fill="#2E3134" fill-rule="nonzero">
            <path d="M105.886567,0.143283582 C106.764179,0.143283582 107.462687,0.859701493 107.462687,1.71940299 L107.462687,22.2626866 C107.462687,23.1402985 106.746269,23.8567164 105.886567,23.8567164 L1.5761194,23.8567164 C0.698507463,23.8567164 0,23.1402985 0,22.280597 L0,1.71940299 C0,0.841791045 0.71641791,0.143283582 1.5761194,0.143283582 L105.886567,0.143283582 Z M74.7761194,6.30447761 L67.2358209,6.30447761 C66.7701493,6.30447761 66.519403,6.55522388 66.4477612,7.02089552 L66.4477612,7.02089552 L64.9074627,17.8925373 C64.8179104,18.3761194 65.0328358,18.6089552 65.4985075,18.6089552 L65.4985075,18.6089552 L68.5791045,18.6089552 C69.0447761,18.6089552 69.2955224,18.3940299 69.3671642,17.9283582 L69.3671642,17.9283582 L70.5492537,9.34925373 C70.6208955,8.86567164 70.8716418,8.63283582 71.3373134,8.63283582 C71.7671642,8.63283582 71.9641791,8.88358209 71.9283582,9.34925373 L71.9283582,9.34925373 L70.6208955,18.5910448 C70.5492537,19.1462687 70.6567164,19.6656716 71.0149254,20.0597015 C71.3731343,20.4537313 71.838806,20.6507463 72.3940299,20.6507463 L72.3940299,20.6507463 L74.0955224,20.6507463 C74.5970149,20.6507463 74.8477612,20.4 74.919403,19.9701493 L74.919403,19.9701493 L76.5313433,8.4 C76.6029851,7.84477612 76.4955224,7.37910448 76.1552239,6.93134328 C75.7970149,6.50149254 75.3313433,6.30447761 74.7761194,6.30447761 L74.7761194,6.30447761 Z M34.2626866,4.33432836 L28.1014925,4.33432836 L27.9071064,4.34162521 C27.3956882,4.38054174 26.9393035,4.57512438 26.5253731,4.92537313 C26.0597015,5.31940299 25.8089552,5.83880597 25.7373134,6.42985075 L25.7373134,6.42985075 L24.3940299,15.9044776 L24.3817164,16.0163972 C24.3570896,16.410199 24.558209,16.6208955 24.9850746,16.6208955 L24.9850746,16.6208955 L28.0656716,16.6208955 L28.1873712,16.6151362 C28.5754533,16.5767855 28.7886024,16.3473541 28.8537313,15.9402985 L28.8537313,15.9402985 L29.5164179,11.0328358 L29.5403972,10.9111901 C29.6351301,10.5236462 29.8778833,10.3164179 30.2686567,10.3164179 C30.6985075,10.3164179 30.8955224,10.5492537 30.8597015,11.0328358 L30.8597015,11.0328358 L30.0358209,16.6029851 L30.0186721,16.7866102 C29.9911553,17.272084 30.1114428,17.721393 30.4298507,18.0716418 C30.7880597,18.4656716 31.2537313,18.6626866 31.8447761,18.6626866 L31.8447761,18.6626866 L33.5462687,18.6626866 L33.6688025,18.6569272 C34.0622672,18.6185765 34.3050204,18.3891452 34.3701493,17.9820896 L34.3701493,17.9820896 L35.9820896,6.4119403 L36.0126985,6.25284179 C36.0834627,5.78167164 35.9641791,5.3641791 35.641791,4.96119403 C35.2835821,4.56716418 34.8537313,4.33432836 34.2626866,4.33432836 L34.2626866,4.33432836 Z M81.8328358,6.32238806 L78.7522388,6.32238806 C78.2865672,6.32238806 78.0358209,6.57313433 77.9641791,7.03880597 L77.9641791,7.03880597 L76.4238806,17.9104478 C76.3343284,18.3940299 76.5492537,18.6268657 77.0149254,18.6268657 L77.0149254,18.6268657 L80.0955224,18.6268657 C80.561194,18.6268657 80.8119403,18.4119403 80.8835821,17.9462687 L80.8835821,17.9462687 L81.6358209,13.0925373 C81.6716418,12.6089552 81.9223881,12.3761194 82.3522388,12.3761194 C82.7820896,12.3761194 82.9791045,12.6268657 82.9074627,13.0925373 L82.9074627,13.0925373 L82.441791,16.6029851 C82.3522388,17.158209 82.5134328,17.6776119 82.8716418,18.0716418 C83.2298507,18.4656716 83.6955224,18.6626866 84.2507463,18.6626866 L84.2507463,18.6626866 L85.9522388,18.6626866 C86.4179104,18.6626866 86.6686567,18.4119403 86.7402985,17.9462687 L86.7402985,17.9462687 L87.3313433,13.719403 C87.4208955,13.2358209 87.2059701,13.0029851 86.7402985,13.0029851 L86.7402985,13.0029851 L85.9522388,13.0029851 C85.4865672,13.0029851 85.2895522,12.7522388 85.361194,12.2865672 L85.361194,12.2865672 L85.4328358,12.2865672 C86.0238806,12.2865672 86.5432836,12.0895522 87.0089552,11.6955224 C87.438806,11.3014925 87.7253731,10.8179104 87.7970149,10.2268657 L87.7970149,10.2268657 L88.2268657,7.02089552 C88.2985075,6.59104478 88.1014925,6.35820896 87.6716418,6.32238806 L87.6716418,6.32238806 L84.5552239,6.32238806 C84.0895522,6.32238806 83.838806,6.57313433 83.7671642,7.03880597 L83.7671642,7.03880597 L83.4089552,9.33134328 C83.3731343,9.77910448 83.1223881,10.0119403 82.6567164,10.0119403 C82.1910448,10.0119403 81.9940299,9.79701493 82.0656716,9.33134328 L82.0656716,9.33134328 L82.4238806,7.03880597 C82.4955224,6.55522388 82.2985075,6.32238806 81.8328358,6.32238806 L81.8328358,6.32238806 Z M93.4746269,6.34029851 L90.3940299,6.34029851 C89.9283582,6.34029851 89.6776119,6.59104478 89.6059701,7.05671642 L89.6059701,7.05671642 L88.1014925,17.9283582 C88.0119403,18.4119403 88.2268657,18.6447761 88.6925373,18.6447761 L88.6925373,18.6447761 L91.7731343,18.6447761 C92.238806,18.6447761 92.4895522,18.3940299 92.561194,17.9283582 L92.561194,17.9283582 L94.0656716,7.02089552 C94.1552239,6.59104478 93.958209,6.35820896 93.4746269,6.34029851 L93.4746269,6.34029851 Z M102.752239,6.28656716 L96.1970149,6.28656716 C95.7313433,6.28656716 95.480597,6.53731343 95.4089552,7.00298507 L95.4089552,7.00298507 L93.8686567,17.8746269 C93.7791045,18.358209 93.9940299,18.5910448 94.4597015,18.5910448 L94.4597015,18.5910448 L101.014925,18.5910448 C101.480597,18.5910448 101.731343,18.3761194 101.802985,17.9104478 L101.802985,17.9104478 L101.964179,16.9970149 C102.053731,16.5492537 101.838806,16.3164179 101.373134,16.3164179 L101.373134,16.3164179 L99.2776119,16.3164179 C98.8119403,16.3164179 98.6149254,16.1014925 98.6865672,15.6358209 L98.6865672,15.6358209 L99.0447761,13.0746269 C99.1164179,12.6268657 99.3671642,12.3940299 99.8328358,12.3940299 L99.8328358,12.3940299 L101.928358,12.3940299 C102.39403,12.3940299 102.644776,12.1432836 102.716418,11.6776119 L102.716418,11.6776119 L102.841791,10.7641791 C102.931343,10.280597 102.716418,10.0477612 102.250746,10.0477612 L102.250746,10.0477612 L100.155224,10.0477612 C99.7253731,10.0477612 99.4925373,9.79701493 99.5641791,9.33134328 C99.6358209,8.84776119 99.8865672,8.61492537 100.352239,8.61492537 L100.352239,8.61492537 L102.447761,8.61492537 C102.913433,8.61492537 103.164179,8.4 103.235821,7.93432836 L103.235821,7.93432836 L103.397015,7.02089552 C103.468657,6.59104478 103.271642,6.35820896 102.752239,6.28656716 L102.752239,6.28656716 Z M52.6567164,6.21492537 L49.5761194,6.21492537 C49.1104478,6.21492537 48.8597015,6.46567164 48.7880597,6.93134328 L48.7880597,6.93134328 L47.5701493,15.5104478 C47.5343284,15.9940299 47.2477612,16.2268657 46.8179104,16.2268657 C46.3522388,16.2268657 46.1552239,16.0119403 46.2268657,15.5462687 L46.2268657,15.5462687 L46.5850746,12.9850746 C46.6208955,12.5014925 46.4238806,12.2686567 45.9940299,12.2686567 L45.9940299,12.2686567 L42.8776119,12.2686567 C42.4119403,12.2686567 42.161194,12.519403 42.0895522,12.9850746 L42.0895522,12.9850746 L41.5701493,16.4955224 C41.5343284,17.0507463 41.641791,17.5701493 42,17.9641791 C42.358209,18.358209 42.8238806,18.5552239 43.3791045,18.5552239 L43.3791045,18.5552239 L49.5402985,18.5552239 C50.0955224,18.5552239 50.6149254,18.358209 51.080597,17.9641791 C51.5104478,17.5701493 51.7970149,17.0507463 51.8686567,16.4955224 L51.8686567,16.4955224 L53.2119403,7.02089552 C53.3014925,6.59104478 53.1044776,6.35820896 52.6567164,6.21492537 L52.6567164,6.21492537 Z M58.4776119,6.30447761 L55.3970149,6.30447761 C54.9313433,6.30447761 54.680597,6.55522388 54.6089552,7.02089552 L54.6089552,7.02089552 L53.2656716,16.4955224 C53.2298507,17.0507463 53.3373134,17.5701493 53.6955224,17.9641791 C54.0537313,18.358209 54.519403,18.5552239 55.0746269,18.5552239 L55.0746269,18.5552239 L61.2358209,18.5552239 C61.7910448,18.5552239 62.3104478,18.358209 62.7761194,17.9641791 C63.2059701,17.5701493 63.4925373,17.0507463 63.5641791,16.4955224 L63.5641791,16.4955224 L64.9074627,7.02089552 C64.9432836,6.59104478 64.7462687,6.35820896 64.280597,6.30447761 L64.280597,6.30447761 L61.2,6.30447761 C60.7343284,6.30447761 60.4835821,6.55522388 60.4119403,7.02089552 L60.4119403,7.02089552 L59.1940299,15.6 C59.158209,16.0835821 58.8716418,16.3164179 58.441791,16.3164179 C57.9761194,16.3164179 57.7791045,16.0656716 57.8507463,15.6 L57.8507463,15.6 L59.0686567,7.02089552 C59.158209,6.53731343 58.9432836,6.30447761 58.4776119,6.30447761 L58.4776119,6.30447761 Z M23.8208955,4.37014925 L17.2477612,4.37014925 C16.7820896,4.37014925 16.5313433,4.62089552 16.4597015,5.08656716 L16.4597015,5.08656716 L14.919403,15.958209 C14.8298507,16.441791 15.0447761,16.6746269 15.5104478,16.6746269 L15.5104478,16.6746269 L22.0656716,16.6746269 C22.5313433,16.6746269 22.7820896,16.4597015 22.8537313,15.9940299 L22.8537313,15.9940299 L23.0149254,15.0447761 C23.1044776,14.561194 22.8895522,14.3283582 22.4238806,14.3283582 L22.4238806,14.3283582 L20.3283582,14.3283582 C19.8626866,14.3283582 19.6656716,14.1134328 19.7373134,13.6477612 L19.7373134,13.6477612 L20.0955224,11.0865672 C20.1671642,10.638806 20.4179104,10.4059701 20.8835821,10.4059701 L20.8835821,10.4059701 L22.9791045,10.4059701 C23.4447761,10.4059701 23.6955224,10.1552239 23.7671642,9.68955224 L23.7671642,9.68955224 L23.8925373,8.7761194 C23.9820896,8.29253731 23.7671642,8.05970149 23.3014925,8.05970149 L23.3014925,8.05970149 L21.2059701,8.05970149 C20.7402985,8.05970149 20.5432836,7.86268657 20.5791045,7.34328358 C20.6507463,6.85970149 20.9014925,6.62686567 21.3671642,6.62686567 L21.3671642,6.62686567 L23.4626866,6.62686567 C23.9283582,6.62686567 24.1791045,6.42985075 24.2507463,5.9641791 L24.2507463,5.9641791 L24.4119403,5.05074627 C24.5014925,4.62089552 24.3044776,4.37014925 23.8208955,4.37014925 L23.8208955,4.37014925 Z M14.5791045,4.3880597 L7.03880597,4.3880597 C6.48358209,4.3880597 5.9641791,4.58507463 5.49850746,4.97910448 C5.03283582,5.37313433 4.74626866,5.89253731 4.67462687,6.44776119 L4.67462687,6.44776119 L3.5641791,14.5432836 C3.49253731,15.0985075 3.6,15.6179104 3.95820896,16.0119403 C4.26268657,16.4059701 4.74626866,16.6029851 5.33731343,16.6029851 L5.33731343,16.6029851 L11.4985075,16.6029851 C12.0537313,16.6029851 12.5731343,16.4059701 13.038806,16.0119403 C13.5044776,15.6179104 13.7910448,15.0985075 13.8626866,14.5432836 L13.8626866,14.5432836 L14.6507463,8.74029851 C14.7402985,8.25671642 14.5253731,8.0238806 14.0597015,8.0238806 L14.0597015,8.0238806 L10.1910448,8.0238806 C9.72537313,8.0238806 9.47462687,8.27462687 9.40298507,8.74029851 L9.40298507,8.74029851 L9.27761194,9.65373134 C9.1880597,9.9761194 9.43880597,10.2089552 9.86865672,10.3701493 C10.2985075,10.4955224 10.4955224,10.7283582 10.4597015,11.0507463 L10.4597015,11.0507463 L10.0656716,13.6119403 C9.99402985,14.0955224 9.74328358,14.3283582 9.27761194,14.3283582 L9.27761194,14.3283582 L8.72238806,14.3283582 C8.25671642,14.3283582 8.05970149,14.0776119 8.13134328,13.6119403 L8.13134328,13.6119403 L9.04477612,7.39701493 C9.11641791,6.91343284 9.36716418,6.68059701 9.83283582,6.68059701 L9.83283582,6.68059701 L14.2208955,6.68059701 C14.6865672,6.68059701 14.9373134,6.46567164 15.0089552,6 L15.0089552,6 L15.1343284,5.05074627 C15.2059701,4.62089552 15.0089552,4.37014925 14.5791045,4.3880597 L14.5791045,4.3880597 Z M41.4447761,4.29850746 L38.3641791,4.29850746 C37.8985075,4.29850746 37.6477612,4.54925373 37.5761194,5.01492537 L37.5761194,5.01492537 L36.0358209,15.8865672 C35.9462687,16.3701493 36.161194,16.6029851 36.6268657,16.6029851 L36.6268657,16.6029851 L39.7074627,16.6029851 C40.2089552,16.6029851 40.4597015,16.3880597 40.5313433,15.9223881 L40.5313433,15.9223881 L41.7134328,7.34328358 C41.7492537,6.85970149 42.0358209,6.62686567 42.4656716,6.62686567 C42.9313433,6.62686567 43.1283582,6.87761194 43.0567164,7.34328358 L43.0567164,7.34328358 L42.7343284,9.6358209 C42.6985075,10.0835821 42.8955224,10.3164179 43.3253731,10.3164179 L43.3253731,10.3164179 L46.441791,10.3164179 C46.9074627,10.3164179 47.158209,10.0656716 47.2298507,9.6358209 L47.2298507,9.6358209 L47.6955224,6.42985075 C47.7671642,5.87462687 47.5701493,5.35522388 47.2835821,4.92537313 C46.9791045,4.49552239 46.4955224,4.29850746 45.9044776,4.29850746 L45.9044776,4.29850746 L42.8238806,4.29850746 C42.358209,4.29850746 42.1074627,4.54925373 42.0358209,5.01492537 C42.1074627,4.53134328 41.9104478,4.29850746 41.4447761,4.29850746 L41.4447761,4.29850746 Z M30.8597015,6.64477612 C31.3253731,6.64477612 31.5402985,6.87761194 31.4507463,7.32537313 C31.4149254,7.80895522 31.1283582,8.00597015 30.6626866,8.00597015 C30.1970149,8.00597015 29.9820896,7.77313433 30.0716418,7.32537313 C30.1432836,6.85970149 30.3940299,6.64477612 30.8597015,6.64477612 Z" id="Combined-Shape"></path>
        </g>
    </g>
</svg>
