<?xml version="1.0" encoding="UTF-8"?>
<svg width="176px" height="24px" viewBox="0 0 176 24" version="1.1" xmlns="http://www.w3.org/2000/svg" xmlns:xlink="http://www.w3.org/1999/xlink">
    <title>Group 13 Copy</title>
    <defs>
        <polygon id="path-1" points="0.0579144574 0.075164369 2.58420643 0.075164369 2.58420643 2.60162602 0.0579144574 2.60162602"></polygon>
    </defs>
    <g id="Page-1" stroke="none" stroke-width="1" fill="none" fill-rule="evenodd">
        <g id="Group-13-Copy">
            <path d="M93.7896585,21.7287805 C88.4792195,21.7287805 84.2926829,17.795122 84.2926829,12.035122 C84.2926829,6.27512195 88.4792195,2.34146341 93.7896585,2.34146341 C96.768,2.34146341 99.0158049,3.66204878 100.617366,5.65697561 L99.2686829,6.528 C98.0885854,4.89834146 96.0374634,3.80253659 93.7896585,3.80253659 C89.3783415,3.80253659 85.9785366,7.14614634 85.9785366,12.035122 C85.9785366,16.8679024 89.3783415,20.2677073 93.7896585,20.2677073 C96.0374634,20.2677073 98.0885854,19.1719024 99.2686829,17.5422439 L100.617366,18.3851707 C98.9596098,20.4362927 96.768,21.7287805 93.7896585,21.7287805 Z M112.277854,21.7287805 C106.770732,21.7287805 103.174244,17.5141463 103.174244,12.035122 C103.174244,6.55609756 106.770732,2.34146341 112.277854,2.34146341 C117.756878,2.34146341 121.381463,6.55609756 121.381463,12.035122 C121.381463,17.5141463 117.756878,21.7287805 112.277854,21.7287805 Z M112.277854,20.2677073 C116.773463,20.2677073 119.69561,16.7555122 119.69561,12.035122 C119.69561,7.25853659 116.773463,3.80253659 112.277854,3.80253659 C107.726049,3.80253659 104.860098,7.25853659 104.860098,12.035122 C104.860098,16.7555122 107.726049,20.2677073 112.277854,20.2677073 Z M139.672976,21.3916098 L137.818537,21.3916098 L135.964098,16.7836098 L126.045659,16.7836098 L124.19122,21.3916098 L122.33678,21.3916098 L130.007415,2.65053659 L132.002341,2.65053659 L139.672976,21.3916098 Z M135.430244,15.3225366 L130.990829,4.3644878 L126.579512,15.3225366 L135.430244,15.3225366 Z M150.125268,21.7287805 C144.814829,21.7287805 140.628293,17.795122 140.628293,12.035122 C140.628293,6.27512195 144.814829,2.34146341 150.125268,2.34146341 C153.10361,2.34146341 155.351415,3.66204878 156.952976,5.65697561 L155.604293,6.528 C154.424195,4.89834146 152.373073,3.80253659 150.125268,3.80253659 C145.713951,3.80253659 142.314146,7.14614634 142.314146,12.035122 C142.314146,16.8679024 145.713951,20.2677073 150.125268,20.2677073 C152.373073,20.2677073 154.424195,19.1719024 155.604293,17.5422439 L156.952976,18.3851707 C155.29522,20.4362927 153.10361,21.7287805 150.125268,21.7287805 Z M175.32878,21.3916098 L173.699122,21.3916098 L173.699122,12.4846829 L161.813854,12.4846829 L161.813854,21.3916098 L160.212293,21.3916098 L160.212293,2.65053659 L161.813854,2.65053659 L161.813854,11.0236098 L173.699122,11.0236098 L173.699122,2.65053659 L175.32878,2.65053659 L175.32878,21.3916098 Z" id="COACH" fill-opacity="0.8" fill="#2E3134"></path>
            <g id="Page-1-Copy">
                <path d="M3.69059107,0.260162602 C4.23937072,0.260162602 4.68292683,0.708502857 4.68292683,1.25885552 L4.68292683,3.94364642 C4.68292683,4.49560642 4.23937072,4.94308943 3.69059107,4.94308943 L0.990739853,4.94308943 C0.442704954,4.94308943 0,4.49560642 0,3.94364642 L0,1.25885552 C0,0.708502857 0.442704954,0.260162602 0.990739853,0.260162602 L3.69059107,0.260162602 Z" id="Fill-1" fill="#0096D6"></path>
                <path d="M3.89657951,7.80487805 L1.04640024,7.80487805 C0.467918597,7.80487805 0,8.26728243 0,8.83932908 L0,23.1544715 L3.89657951,23.1544715 C4.47418366,23.1544715 4.94308943,22.6920672 4.94308943,22.1207789 L4.94308943,8.83932908 C4.94308943,8.26728243 4.47418366,7.80487805 3.89657951,7.80487805" id="Fill-3" fill="#0096D6"></path>
                <path d="M20.5390306,0 L13.307085,0.163941807 C8.86873752,0.316258847 7.10363263,3.581406 7.10363263,6.75637973 L7.02439024,23.1544715 L11.0686256,23.1544715 C11.6513943,23.1544715 12.123091,22.6907846 12.123091,22.1171512 L12.0758992,15.6321609 C12.0758992,15.0386459 12.4977516,14.5932109 13.0999717,14.5932109 L16.9175318,14.5932109 C17.5012951,14.5932109 17.9728813,14.1287635 17.9728813,13.5567598 L17.9728813,11.2071445 C17.9728813,10.6342716 17.5012951,10.1705847 16.9175318,10.1705847 L12.0986662,10.1705847 L12.0986662,7.42040381 C12.0986662,5.75882263 12.9845895,5.07328731 14.9754854,5.07328731 L20.5390306,5.0600329 C21.1210256,5.0600329 21.5934959,4.59558544 21.5934959,4.02271258 L21.5934959,1.03732033 C21.5934959,0.465316606 21.1210256,0 20.5390306,0" id="Fill-5" fill-opacity="0.8" fill="#2E3134"></path>
                <path d="M27.831486,0.260162602 L24.9816319,0.260162602 C24.40317,0.260162602 23.9349593,0.72737462 23.9349593,1.30536887 L23.9349593,23.4146341 L27.831486,23.4146341 C28.4099478,23.4146341 28.8780488,22.9466558 28.8780488,22.3703036 L28.8780488,1.30536887 C28.8780488,0.72737462 28.4099478,0.260162602 27.831486,0.260162602" id="Fill-7" fill-opacity="0.8" fill="#2E3134"></path>
                <path d="M44.690553,6.75637973 C44.690553,3.581406 42.9228744,0.316258847 38.48194,0.163072665 L32.2766457,0 C31.6940939,0 31.2195122,0.464447464 31.2195122,1.03732033 L31.2195122,4.02347308 C31.2195122,4.59558544 31.6940939,5.0600329 32.2766457,5.0600329 L36.8110584,5.07415645 C38.8039697,5.07415645 39.6908512,5.75795349 39.6908512,7.42029516 L39.6082143,23.1544715 L43.6908339,23.1544715 C44.2758195,23.1544715 44.7479675,22.6907846 44.7479675,22.1179117 L44.690553,6.75637973 Z" id="Fill-9" fill-opacity="0.8" fill="#2E3134"></path>
                <path d="M52.0171607,0 C52.0171607,0 45.4767894,0.149089355 44.6230057,0.149089355 C43.8813627,0.210492247 43.7803044,0.71256435 44.2626631,1.16173378 C45.9476268,2.63361368 46.1841976,5.03794516 46.1841976,5.15381655 L52.0171607,5.20325203 C52.6007972,5.20325203 53.0731707,4.72254232 53.0731707,4.12853365 L53.0731707,1.07561315 C53.0731707,0.480709712 52.6007972,0 52.0171607,0" id="Fill-11" fill-opacity="0.8" fill="#2E3134"></path>
                <g id="Group-15" transform="translate(50.731707, 20.813008)">
                    <mask id="mask-2" fill="white">
                        <use xlink:href="#path-1"></use>
                    </mask>
                    <g id="Clip-14"></g>
                    <path d="M1.3215129,2.60168257 C0.624164016,2.60168257 0.0579144574,2.0353199 0.0579144574,1.33887593 C0.0579144574,0.634627077 0.624164016,0.075164369 1.3215129,0.075164369 C2.02395193,0.075164369 2.58420643,0.634627077 2.58420643,1.33887593 C2.58420643,2.0353199 2.02395193,2.60168257 1.3215129,2.60168257 L1.3215129,2.60168257 Z M1.3215129,0.265761753 C0.725853659,0.265761753 0.249303641,0.743216684 0.249303641,1.33887593 C0.249303641,1.92752209 0.725853659,2.40938848 1.3215129,2.40938848 C1.91106398,2.40938848 2.39372216,1.92752209 2.39372216,1.33887593 C2.39372216,0.743216684 1.91106398,0.265761753 1.3215129,0.265761753 L1.3215129,0.265761753 Z M1.66628491,2.06552139 L1.29131142,1.49225875 L1.04132909,1.49225875 L1.04132909,2.06552139 L0.838741605,2.06552139 L0.838741605,0.616528809 L1.42829268,0.616528809 C1.67307176,0.616528809 1.89896076,0.78970661 1.89896076,1.05790032 C1.89896076,1.3801626 1.6127819,1.4870555 1.52919053,1.4870555 L1.91626723,2.06552139 L1.66628491,2.06552139 Z M1.42829268,0.795814776 L1.04132909,0.795814776 L1.04132909,1.30788264 L1.42829268,1.30788264 C1.55339696,1.30788264 1.69049134,1.2069848 1.69049134,1.05790032 C1.69049134,0.898296218 1.55339696,0.795814776 1.42829268,0.795814776 L1.42829268,0.795814776 Z" id="Fill-13" fill-opacity="0.8" fill="#2E3134" mask="url(#mask-2)"></path>
                </g>
                <path d="M74.4885415,10.611007 C74.4885415,10.611007 71.0817255,7.33590693 71.001697,7.25802622 C70.5036078,6.84168894 70.1225932,7.01573069 70.0733449,7.5122202 C70.0676286,7.56619586 70.068508,7.77831262 70.0668591,7.82439204 C70.0644406,7.9228246 70.0587243,8.02136532 70.0515789,8.11904071 C69.9837526,9.02699996 69.7133267,9.92868549 69.2773475,10.7309649 C68.6055701,11.9686192 67.3818382,12.916276 66.3749966,13.8838356 C63.0675566,17.0621256 56.9756098,22.8943089 56.9756098,22.8943089 L63.4695677,22.8943089 C63.8384901,22.8943089 64.1921324,22.7513113 64.4545334,22.4954948 L74.4885415,12.6938833 C75.0729252,12.1186477 75.0729252,11.1861344 74.4885415,10.611007" id="Fill-16" fill="#0096D6"></path>
                <path d="M67.2067837,3.3560208 C67.0983185,3.22652157 64.7605025,0.855859062 64.7605025,0.855859062 C64.6717176,0.77011404 64.5830445,0.692414501 64.4911286,0.624303417 C64.1757969,0.388890347 63.8325102,0.260162602 63.406365,0.260162602 L59.5139186,0.260162602 L56.9756098,0.260162602 L61.4838476,4.61056526 L62.7320918,5.81011388 L67.4679947,10.362866 C67.538553,10.4308669 67.6567465,10.4178618 67.708519,10.3345415 C68.9633605,8.31754962 69.2145077,5.75908567 67.2067837,3.3560208" id="Fill-18" fill="#0096D6"></path>
            </g>
        </g>
    </g>
</svg>
