<?xml version="1.0" encoding="UTF-8"?>
<svg width="134px" height="24px" viewBox="0 0 134 24" version="1.1" xmlns="http://www.w3.org/2000/svg" xmlns:xlink="http://www.w3.org/1999/xlink">
    <title>mashable_logo</title>
    <defs>
        <polygon id="path-1" points="0.1808 1.056 16.1808 1.056 16.1808 19.1568 0.1808 19.1568"></polygon>
        <polygon id="path-3" points="0.1808 1.056 16.1808 1.056 16.1808 19.1568 0.1808 19.1568"></polygon>
        <polygon id="path-5" points="0.1808 0 16.1808 0 16.1808 22.3568 0.1808 22.3568"></polygon>
        <polygon id="path-7" points="0.1808 1.056 17.7808 1.056 17.7808 19.1568 0.1808 19.1568"></polygon>
        <polygon id="path-9" points="0.1808 0 17.7808 0 17.7808 22.3568 0.1808 22.3568"></polygon>
        <polygon id="path-11" points="0.1808 0 6.5808 0 6.5808 22.3568 0.1808 22.3568"></polygon>
        <polygon id="path-13" points="0.1808 1.056 17.0752 1.056 17.0752 19.1568 0.1808 19.1568"></polygon>
    </defs>
    <g id="Page-1" stroke="none" stroke-width="1" fill="none" fill-rule="evenodd" opacity="0.803672">
        <g id="mashable_logo">
            <polygon id="Path" fill="#2E3134" fill-rule="nonzero" points="17.4688 0.544 12.8928 12.6624 8.2896 0.544 0.4192 0.544 0.4192 22.5072 6.0832 22.5072 6.0832 7.9872 11.6448 22.5072 14.144 22.5072 19.6752 7.9872 19.6752 22.5072 25.3392 22.5072 25.3392 0.544"></polygon>
            <g id="Clipped" transform="translate(26.019200, 3.744000)">
                <mask id="mask-2" fill="white">
                    <use xlink:href="#path-1"></use>
                </mask>
                <g id="a"></g>
                <path d="M10.8064,14.6816 L10.8064,13.2624 C10.2816,12.5056 9.0944,12.1424 7.9808,12.1424 C6.6624,12.1424 5.4432,12.7376 5.4432,13.9872 C5.4432,15.2368 6.6624,15.832 7.9808,15.832 C9.0944,15.832 10.2816,15.4368 10.8064,14.68 L10.8064,14.6816 Z M10.8064,18.7616 L10.8064,17.1808 C9.8192,18.3632 7.912,19.1568 5.8688,19.1568 C3.432,19.1568 0.4064,17.4752 0.4064,13.9184 C0.4064,10.0688 3.4304,8.7872 5.8688,8.7872 C7.9808,8.7872 9.856,9.4752 10.8064,10.6624 L10.8064,9.0816 C10.8064,7.6992 9.6256,6.744 7.5808,6.744 C6,6.744 4.4192,7.368 3.1376,8.456 L1.2624,4.9312 C3.3056,3.1872 6.0368,2.4624 8.4688,2.4624 C12.288,2.4624 15.8816,3.8816 15.8816,8.8192 L15.8816,18.7632 L10.8064,18.7632 L10.8064,18.7616 Z" id="Shape" fill="#2E3134" fill-rule="nonzero" mask="url(#mask-2)"></path>
            </g>
            <g id="Clipped" transform="translate(42.019200, 3.744000)">
                <mask id="mask-4" fill="white">
                    <use xlink:href="#path-3"></use>
                </mask>
                <g id="c"></g>
                <path d="M0.568,16.688 L2.6752,13.0688 C3.8624,14.1184 6.3936,15.2064 8.2752,15.2064 C9.7872,15.2064 10.4128,14.7744 10.4128,14.0864 C10.4128,12.112 1.1632,14.1504 1.1632,7.6992 C1.1632,4.8992 3.6,2.4624 7.9744,2.4624 C10.6752,2.4624 12.912,3.3184 14.6256,4.568 L12.688,8.1632 C11.7312,7.2368 9.92,6.4128 8.0128,6.4128 C6.8256,6.4128 6.0368,6.8752 6.0368,7.5008 C6.0368,9.2448 15.2496,7.4368 15.2496,13.9568 C15.2496,16.9808 12.5872,19.1568 8.0432,19.1568 C5.1808,19.1568 2.2512,18.2 0.568,16.688" id="Path" fill="#2E3134" fill-rule="nonzero" mask="url(#mask-4)"></path>
            </g>
            <g id="Clipped" transform="translate(58.019200, 0.544000)">
                <mask id="mask-6" fill="white">
                    <use xlink:href="#path-5"></use>
                </mask>
                <g id="e"></g>
                <path d="M11.0064,21.9632 L11.0064,12.704 C11.0064,10.768 9.9872,10.1424 8.368,10.1424 C6.888,10.1424 5.9008,10.9616 5.312,11.6864 L5.312,21.9616 L0.2368,21.9616 L0.2368,0 L5.312,0 L5.312,8 C6.2624,6.88 8.144,5.664 10.8064,5.664 C14.432,5.664 16.0752,7.7056 16.0752,10.6368 L16.0752,21.9632 L11.0064,21.9632 Z" id="Path" fill="#2E3134" fill-rule="nonzero" mask="url(#mask-6)"></path>
            </g>
            <g id="Clipped" transform="translate(74.019200, 3.744000)">
                <mask id="mask-8" fill="white">
                    <use xlink:href="#path-7"></use>
                </mask>
                <g id="g"></g>
                <path d="M11.5008,14.6816 L11.5008,13.2624 C10.9744,12.5056 9.7888,12.1424 8.6688,12.1424 C7.3504,12.1424 6.1312,12.7376 6.1312,13.9872 C6.1312,15.2368 7.3504,15.832 8.6688,15.832 C9.7888,15.832 10.9744,15.4368 11.5008,14.68 L11.5008,14.6816 Z M11.5008,18.7616 L11.5008,17.1808 C10.512,18.3632 8.6,19.1568 6.5632,19.1568 C4.1248,19.1568 1.0944,17.4752 1.0944,13.9184 C1.0944,10.0688 4.1248,8.7872 6.5632,8.7872 C8.6688,8.7872 10.544,9.4752 11.5008,10.6624 L11.5008,9.0816 C11.5008,7.6992 10.312,6.744 8.2752,6.744 C6.6944,6.744 5.112,7.368 3.8256,8.456 L1.9504,4.9312 C3.9936,3.1872 6.7248,2.4624 9.1632,2.4624 C12.9808,2.4624 16.568,3.8816 16.568,8.8192 L16.568,18.7632 L11.5008,18.7632 L11.5008,18.7616 Z" id="Shape" fill="#2E3134" fill-rule="nonzero" mask="url(#mask-8)"></path>
            </g>
            <g id="Clipped" transform="translate(91.619200, 0.544000)">
                <mask id="mask-10" fill="white">
                    <use xlink:href="#path-9"></use>
                </mask>
                <g id="i"></g>
                <path d="M8.712,17.8816 C10.7184,17.8816 12.2368,16.3936 12.2368,13.9936 C12.2368,11.6256 10.7184,10.1376 8.712,10.1376 C7.624,10.1376 6.312,10.7312 5.6816,11.5872 L5.6816,16.4624 C6.312,17.3184 7.6256,17.8816 8.712,17.8816 L8.712,17.8816 Z M0.6128,21.9616 L0.6128,0 L5.6816,0 L5.6816,7.936 C6.81034557,6.48322399 8.55399085,5.64248501 10.3936,5.664 C14.3744,5.664 17.4064,8.7936 17.4064,13.9936 C17.4064,19.3936 14.312,22.3568 10.3936,22.3568 C8.6128,22.3568 7,21.632 5.6816,20.1184 L5.6816,21.9632 L0.6128,21.9632 L0.6128,21.9616 Z" id="Shape" fill="#2E3134" fill-rule="nonzero" mask="url(#mask-10)"></path>
            </g>
            <g id="Clipped" transform="translate(109.219200, 0.544000)">
                <mask id="mask-12" fill="white">
                    <use xlink:href="#path-11"></use>
                </mask>
                <g id="k"></g>
                <polygon id="Path" fill="#2E3134" fill-rule="nonzero" mask="url(#mask-12)" points="0.8256 0 5.8944 0 5.8944 21.9632 0.8256 21.9632"></polygon>
            </g>
            <g id="Clipped" transform="translate(115.619200, 3.744000)">
                <mask id="mask-14" fill="white">
                    <use xlink:href="#path-13"></use>
                </mask>
                <g id="m"></g>
                <path d="M8.944,6.544 C6.736,6.544 5.8816,7.8624 5.68,9.0128 L12.2368,9.0128 C12.1008,7.8928 11.2816,6.544 8.944,6.544 M0.512,10.7936 C0.512,6.1872 3.968,2.4624 8.944,2.4624 C13.6496,2.4624 17.0752,5.9184 17.0752,11.3184 L17.0752,12.4752 L5.7504,12.4752 C6.112,13.888 7.4304,15.0752 9.7312,15.0752 C10.8512,15.0752 12.6944,14.5808 13.6192,13.7248 L15.8192,17.0496 C14.2432,18.4624 11.6064,19.1568 9.1744,19.1568 C4.2688,19.1568 0.512,15.9632 0.512,10.7936" id="Shape" fill="#2E3134" fill-rule="nonzero" mask="url(#mask-14)"></path>
            </g>
        </g>
    </g>
</svg>
