<?xml version="1.0" encoding="UTF-8"?>
<svg width="112px" height="24px" viewBox="0 0 112 24" version="1.1" xmlns="http://www.w3.org/2000/svg" xmlns:xlink="http://www.w3.org/1999/xlink">
    <title>wired_logo</title>
    <g id="Page-1" stroke="none" stroke-width="1" fill="none" fill-rule="evenodd" opacity="0.796817">
        <g id="wired_logo" fill="#2E3134" fill-rule="nonzero">
            <path d="M22.0243902,0 L45.2926829,0 C45.2926829,7.99902439 45.2926829,16.0009756 45.2926829,24 L22.0243902,24 C22.0243902,16.0009756 22.0243902,7.99902439 22.0243902,0 L22.0243902,0 Z M27.9834146,3.60878049 C27.9717073,4.59219512 27.9717073,5.57268293 27.9834146,6.55609756 C29.3209756,6.56487805 30.6585366,6.55902439 31.9960976,6.55902439 C31.9902439,10.1853659 31.9902439,13.8146341 31.9960976,17.4409756 C30.6585366,17.4409756 29.3209756,17.435122 27.9834146,17.4439024 C27.9717073,18.4273171 27.9717073,19.4078049 27.9863415,20.3912195 C31.7678049,20.4 35.5492683,20.4 39.3307317,20.3912195 C39.3453659,19.4107317 39.342439,18.4273171 39.3365854,17.4468293 C37.9960976,17.435122 36.6585366,17.4409756 35.3209756,17.4409756 C35.3268293,13.8146341 35.3268293,10.1853659 35.3209756,6.55902439 C36.6585366,6.55902439 37.9960976,6.56487805 39.3336585,6.55609756 C39.3453659,5.57268293 39.3453659,4.58926829 39.3307317,3.60878049 C35.5492683,3.6 31.7678049,3.6 27.9834146,3.60878049 Z" id="Shape"></path>
            <path d="M68.7804878,0 L92.1219512,0 C92.1219512,7.99902439 92.1219512,16.0009756 92.1219512,24 L68.7804878,24 C68.7804878,16.0009756 68.7804878,7.99902439 68.7804878,0 L68.7804878,0 Z M72.977561,3.61170732 C72.9658537,4.58926829 72.9658537,5.5697561 72.9717073,6.54731707 C73.7180488,6.56195122 74.4643902,6.56195122 75.2107317,6.55609756 C75.2253659,10.1853659 75.2253659,13.8146341 75.2107317,17.4439024 C74.4643902,17.4380488 73.7209756,17.4380488 72.9746341,17.4468293 C72.9658537,18.4273171 72.9629268,19.4078049 72.977561,20.3882927 C77.6839024,20.4029268 82.3873171,20.4029268 87.0936585,20.3882927 C87.1170732,18.4478049 87.102439,16.5073171 87.102439,14.5668293 C86.0809756,14.5580488 85.0595122,14.5580488 84.0380488,14.5697561 C84.035122,15.5268293 84.035122,16.4839024 84.0380488,17.4409756 C82.1765854,17.4439024 80.315122,17.4292683 78.4536585,17.4497561 C78.4243902,16.0126829 78.444878,14.5726829 78.4390244,13.1356098 C79.902439,13.1356098 81.3658537,13.1356098 82.8292683,13.1356098 C82.8292683,12.2019512 82.8292683,11.2682927 82.8292683,10.3346341 C81.3658537,10.3346341 79.902439,10.3346341 78.4390244,10.3346341 C78.4390244,9.07609756 78.4360976,7.81756098 78.4419512,6.55902439 C80.2565854,6.56195122 82.0682927,6.56195122 83.8829268,6.55902439 C83.8770732,7.39609756 83.8770732,8.23317073 83.88,9.07317073 C84.8839024,9.07317073 85.8878049,9.07317073 86.8917073,9.07317073 C86.8887805,7.25268293 86.8946341,5.43219512 86.8887805,3.61170732 C82.2497561,3.59707317 77.6136585,3.59707317 72.977561,3.61170732 Z" id="Shape"></path>
            <path d="M0.266341463,3.76682927 C1.33756098,3.77268293 2.40878049,3.76682927 3.48,3.7697561 C4.15902439,8.2097561 4.90536585,12.6439024 5.69268293,17.0663415 C5.82439024,16.7356098 5.94146341,16.4019512 6.0204878,16.0536585 C6.78731707,12.3014634 7.6097561,8.55804878 8.39414634,4.80585366 C8.49073171,4.4195122 8.60195122,3.83707317 9.09365854,3.79609756 C9.96,3.7404878 10.8321951,3.74341463 11.6985366,3.79609756 C12.4068293,4.12390244 12.3190244,5.06634146 12.5121951,5.71317073 C13.3609756,9.49756098 14.0136585,13.337561 14.9882927,17.0868293 C15.8546341,12.6673171 16.4839024,8.20390244 17.2682927,3.7697561 C18.2517073,3.7697561 19.235122,3.77268293 20.2214634,3.76682927 C19.1297561,8.85073171 18.1668293,13.9668293 17.1336585,19.062439 C17.0312195,19.4663415 17.0107317,19.955122 16.6097561,20.1921951 C15.4946341,20.3473171 14.3473171,20.3356098 13.2292683,20.2009756 C12.8370732,19.9580488 12.8136585,19.4663415 12.702439,19.0682927 C11.8887805,15.3219512 11.1658537,11.555122 10.2907317,7.8204878 C10.1385366,8.1102439 10.0390244,8.42341463 9.98341463,8.74536585 C9.28097561,12.2253659 8.51414634,15.6936585 7.80878049,19.1736585 C7.70634146,19.5980488 7.57170732,20.2595122 7.0097561,20.2419512 C5.97658537,20.3121951 4.92585366,20.3531707 3.90146341,20.1892683 C3.33365854,19.7970732 3.44780488,19.0243902 3.26341463,18.4390244 C2.25365854,13.5512195 1.31414634,8.64585366 0.266341463,3.76682927 Z" id="Path"></path>
            <path d="M50.5990244,3.7697561 C53.8273171,3.7697561 57.0585366,3.76682927 60.2868293,3.7697561 C61.2878049,3.7697561 62.4819512,3.89853659 63.12,4.77658537 C63.9190244,5.83317073 63.8897561,7.21756098 63.9014634,8.47609756 C63.8985366,9.55317073 63.8487805,10.7326829 63.1521951,11.6165854 C62.6721951,12.2604878 61.8234146,12.2926829 61.1619512,12.6439024 C62.0517073,12.9014634 63.1931707,13.1326829 63.4858537,14.1658537 C64.0536585,16.1385366 63.6936585,18.2195122 63.9863415,20.2331707 C62.9531707,20.2302439 61.9229268,20.2302439 60.8897561,20.2302439 C60.7785366,18.4536585 60.6263415,16.68 60.5443902,14.9004878 C60.5590244,14.1921951 59.7921951,13.7326829 59.1482927,13.7941463 C57.3834146,13.782439 55.6185366,13.7970732 53.8536585,13.7912195 C53.8536585,15.9365854 53.8536585,18.084878 53.8536585,20.2302439 C52.7678049,20.2302439 51.6819512,20.2302439 50.5990244,20.2302439 C50.5990244,14.742439 50.5990244,9.25756098 50.5990244,3.7697561 L50.5990244,3.7697561 Z M53.8536585,6.47414634 C53.8536585,8.06341463 53.8536585,9.65268293 53.8536585,11.2419512 C55.8,11.2156098 57.7521951,11.3004878 59.6956098,11.2009756 C60.7404878,11.1395122 60.755122,9.88390244 60.7960976,9.0995122 C60.7639024,8.23609756 60.924878,7.08878049 60.12,6.51804878 C58.0360976,6.4097561 55.9434146,6.50634146 53.8536585,6.47414634 Z" id="Shape"></path>
            <path d="M97.4282927,3.7697561 C100.270244,3.78146341 103.115122,3.74341463 105.957073,3.7902439 C107.546341,3.84878049 109.355122,4.2204878 110.300488,5.63414634 C111.491707,7.53658537 111.30439,9.86634146 111.515122,12.0087805 C111.307317,14.1482927 111.485854,16.4692683 110.300488,18.3658537 C109.284878,19.8760976 107.320976,20.1892683 105.635122,20.2214634 C102.898537,20.2419512 100.164878,20.2243902 97.4282927,20.2302439 C97.4282927,14.742439 97.4282927,9.25756098 97.4282927,3.7697561 L97.4282927,3.7697561 Z M100.682927,6.47414634 C100.682927,10.1590244 100.682927,13.8409756 100.682927,17.5258537 C102.348293,17.5229268 104.013659,17.5287805 105.681951,17.5287805 C106.480976,17.5434146 107.449756,17.3326829 107.82439,16.5365854 C108.383415,15.3043902 108.245854,13.9170732 108.292683,12.6029268 C108.23122,10.9580488 108.465366,9.24292683 107.912195,7.66243902 C107.663415,6.85463415 106.764878,6.47121951 105.977561,6.48 C104.212683,6.46243902 102.447805,6.48292683 100.682927,6.47414634 Z" id="Shape"></path>
        </g>
    </g>
</svg>
